squats_2_grf
version=1
nRows=30
nColumns=19
inDegrees=no
endheader
time	ground_force_left_vx	ground_force_left_vy	ground_force_left_vz	ground_force_left_px	ground_force_left_py	ground_force_left_pz	ground_force_left_mx	ground_force_left_my	ground_force_left_mz	ground_force_right_vx	ground_force_right_vy	ground_force_right_vz	ground_force_right_px	ground_force_right_py	ground_force_right_pz	ground_force_right_mx	ground_force_right_my	ground_force_right_mz
      1.74800000	     -1.06235635	    375.14528954	     -4.06329511	     -2.29116439	      0.01022576	      2.32097950	      0.02026728	    -10.33667978	      0.02584808	     -1.53991569	    378.11682578	      4.03477137	     -2.30145633	      0.01049378	      2.68422389	     -0.01151856	      9.33298304	      0.02788817
      1.74900000	     -1.01967383	    375.30347012	     -4.23019935	     -2.29125809	      0.01022569	      2.32102505	      0.02029504	    -10.35083659	      0.02588348	     -1.49711709	    378.21886280	      4.02492789	     -2.30154774	      0.01049369	      2.68421619	     -0.01152096	      9.33492558	      0.02789397
      1.75000000	     -0.98273509	    375.46371068	     -4.39613706	     -2.29135144	      0.01022562	      2.32107014	      0.02032332	    -10.36525970	      0.02591955	     -1.44703911	    378.32703254	      4.01627130	     -2.30163998	      0.01049360	      2.68420880	     -0.01152380	      9.33723131	      0.02790086
      1.75100000	     -0.95188963	    375.62499173	     -4.56073957	     -2.29144441	      0.01022555	      2.32111475	      0.02035200	    -10.37988627	      0.02595612	     -1.39003987	    378.44042667	      4.00859721	     -2.30173297	      0.01049351	      2.68420175	     -0.01152710	      9.33990588	      0.02790885
      1.75200000	     -0.92745430	    375.78636110	     -4.72361070	     -2.29153699	      0.01022548	      2.32115890	      0.02038095	    -10.39465430	      0.02599305	     -1.32652218	    378.55815752	      4.00170595	     -2.30182663	      0.01049341	      2.68419508	     -0.01153087	      9.34295535	      0.02791797
      1.75300000	     -0.90970743	    375.94694229	     -4.88433165	     -2.29162917	      0.01022541	      2.32120257	      0.02041007	    -10.40950311	      0.02603018	     -1.25692515	    378.67937763	      3.99540687	     -2.30192087	      0.01049332	      2.68418883	     -0.01153510	      9.34638608	      0.02792822
      1.75400000	     -0.89888312	    376.10594117	     -5.04246612	     -2.29172093	      0.01022534	      2.32124576	      0.02043922	    -10.42437390	      0.02606737	     -1.18171557	    378.80329775	      3.98952226	     -2.30201560	      0.01049322	      2.68418302	     -0.01153981	      9.35020471	      0.02793963
      1.75500000	     -0.89516576	    376.26265101	     -5.19756590	     -2.29181226	      0.01022526	      2.32128844	      0.02046831	    -10.43921025	      0.02610447	     -1.10137942	    378.92920313	      3.98389081	     -2.30211074	      0.01049311	      2.68417768	     -0.01154501	      9.35441796	      0.02795222
      1.75600000	     -0.89868509	    376.41645567	     -5.34917658	     -2.29190316	      0.01022519	      2.32133058	      0.02049723	    -10.45395850	      0.02614135	     -1.01641354	    379.05646800	      3.97837038	     -2.30220620	      0.01049301	      2.68417285	     -0.01155071	      9.35903247	      0.02796601
      1.75700000	     -0.90951164	    376.56683090	     -5.49684336	     -2.29199362	      0.01022512	      2.32137216	      0.02052588	    -10.46856821	      0.02617788	     -0.92731776	    379.18456790	      3.97284035	     -2.30230189	      0.01049291	      2.68416856	     -0.01155691	      9.36405459	      0.02798101
      1.75800000	     -0.92765299	    376.71334362	     -5.64011691	     -2.29208363	      0.01022504	      2.32141313	      0.02055416	    -10.48299242	      0.02621395	     -0.83458760	    379.31308985	      3.96720316	     -2.30239775	      0.01049280	      2.68416482	     -0.01156362	      9.36949014	      0.02799726
      1.75900000	     -0.95305072	    376.85564941	     -5.77855905	     -2.29217319	      0.01022497	      2.32145345	      0.02058199	    -10.49718796	      0.02624945	     -0.73870767	    379.44174029	      3.96138529	     -2.30249369	      0.01049269	      2.68416166	     -0.01157084	      9.37534417	      0.02801475
      1.76000000	     -0.98557824	    376.99348799	     -5.91174829	     -2.29226228	      0.01022489	      2.32149306	      0.02060930	    -10.51111559	      0.02628428	     -0.64014592	    379.57035069	      3.95533757	     -2.30258965	      0.01049258	      2.68415909	     -0.01157859	      9.38162074	      0.02803350
      1.76100000	     -1.02503970	    377.12667716	     -6.03928501	     -2.29235092	      0.01022482	      2.32153192	      0.02063601	    -10.52474014	      0.02631835	     -0.53934879	    379.69888078	      3.94903480	     -2.30268556	      0.01049247	      2.68415714	     -0.01158686	      9.38832264	      0.02805353
      1.76200000	     -1.07116990	    377.25510505	     -6.16079632	     -2.29243908	      0.01022474	      2.32156996	      0.02066207	    -10.53803055	      0.02635158	     -0.43673749	    379.82741952	      3.94247485	     -2.30278139	      0.01049235	      2.68415580	     -0.01159566	      9.39545121	      0.02807483
      1.76300000	     -1.12363529	    377.37872112	     -6.27594035	     -2.29252678	      0.01022466	      2.32160713	      0.02068742	    -10.55095980	      0.02638391	     -0.33270530	    379.95618371	      3.93567704	     -2.30287706	      0.01049224	      2.68415508	     -0.01160498	      9.40300614	      0.02809741
      1.76400000	     -1.18203623	    377.49752618	     -6.38441011	     -2.29261401	      0.01022458	      2.32164335	      0.02071202	    -10.56350480	      0.02641528	     -0.22761601	    380.08551448	      3.92868009	     -2.30297255	      0.01049212	      2.68415497	     -0.01161483	      9.41098531	      0.02812125
      1.76500000	     -1.24591033	    377.61156151	     -6.48593671	     -2.29270077	      0.01022450	      2.32167858	      0.02073582	    -10.57564621	      0.02644564	     -0.12180357	    380.21587154	      3.92153940	     -2.30306781	      0.01049200	      2.68415548	     -0.01162519	      9.41938476	      0.02814635
      1.76600000	     -1.31473693	    377.72089761	     -6.58029190	     -2.29278706	      0.01022441	      2.32171274	      0.02075881	    -10.58736823	      0.02647496	     -0.01557272	    380.34782536	      3.91432399	     -2.30316281	      0.01049188	      2.68415659	     -0.01163607	      9.42819855	      0.02817268
      1.76700000	     -1.38794266	    377.82562269	     -6.66729009	     -2.29287287	      0.01022433	      2.32174577	      0.02078094	    -10.59865834	      0.02650319	      0.09079930	    380.48204751	      3.90711293	     -2.30325752	      0.01049176	      2.68415827	     -0.01164745	      9.43741883	      0.02820024
      1.76800000	     -1.46490802	    377.92583129	     -6.74678954	     -2.29295822	      0.01022424	      2.32177762	      0.02080222	    -10.60950695	      0.02653032	      0.19706008	    380.61929903	      3.89999151	     -2.30335191	      0.01049163	      2.68416053	     -0.01165932	      9.44703583	      0.02822897
      1.76900000	     -1.54497471	    378.02161325	     -6.81869310	     -2.29304310	      0.01022415	      2.32180822	      0.02082261	    -10.61990719	      0.02655632	      0.30297860	    380.76041716	      3.89304712	     -2.30344596	      0.01049151	      2.68416331	     -0.01167167	      9.45703793	      0.02825886
      1.77000000	     -1.62745385	    378.11304325	     -6.88294819	     -2.29312750	      0.01022406	      2.32183753	      0.02084211	    -10.62985451	      0.02658120	      0.40834106	    380.90630053	      3.88636509	     -2.30353964	      0.01049138	      2.68416660	     -0.01168447	      9.46741169	      0.02828986
      1.77100000	     -1.71163459	    378.20017130	     -6.93954626	     -2.29321145	      0.01022396	      2.32186549	      0.02086072	    -10.63934641	      0.02660493	      0.51294628	    381.05789294	      3.88002448	     -2.30363293	      0.01049126	      2.68417037	     -0.01169771	      9.47814199	      0.02832192
      1.77200000	     -1.79679311	    378.28301422	     -6.98852177	     -2.29329492	      0.01022387	      2.32189206	      0.02087844	    -10.64838212	      0.02662753	      0.61660065	    381.21616606	      3.87409398	     -2.30372579	      0.01049113	      2.68417456	     -0.01171137	      9.48921209	      0.02835500
      1.77300000	     -1.88220183	    378.36154841	     -7.02995053	     -2.29337794	      0.01022377	      2.32191721	      0.02089526	    -10.65696228	      0.02664898	      0.71911304	    381.38210112	      3.86862803	     -2.30381820	      0.01049100	      2.68417915	     -0.01172543	      9.50060380	      0.02838904
      1.77400000	     -1.96713850	    378.43570403	     -7.06394771	     -2.29346048	      0.01022366	      2.32194091	      0.02091120	    -10.66508873	      0.02666931	      0.82028970	    381.55667009	      3.86366325	     -2.30391013	      0.01049088	      2.68418409	     -0.01173987	      9.51229760	      0.02842398
      1.77500000	     -2.05089505	    378.50536050	     -7.09066536	     -2.29354256	      0.01022356	      2.32196314	      0.02092625	    -10.67276418	      0.02668850	      0.91992949	    381.74081636	      3.85921518	     -2.30400153	      0.01049075	      2.68418932	     -0.01175464	      9.52427282	      0.02845977
      1.77600000	     -2.13278602	    378.57034358	     -7.11028967	     -2.29362416	      0.01022345	      2.32198387	      0.02094042	    -10.67999209	      0.02670657	      1.01781945	    381.93543551	      3.85527553	     -2.30409237	      0.01049062	      2.68419482	     -0.01176975	      9.53650784	      0.02849633
      1.77700000	     -2.21215640	    378.63042390	     -7.12303789	     -2.29370529	      0.01022334	      2.32200311	      0.02095372	    -10.68677638	      0.02672354	      1.11373107	    382.14135625	      3.85180996	     -2.30418260	      0.01049049	      2.68420052	     -0.01178514	      9.54898028	      0.02853360
